#!OML:ASF X:\für Bonn\!DataBase\2005_08_10_Bjorn_Final\c3d\bjorn.ASF
:FULLY-SPECIFIED
:DEGREES
262
root 3.58299 18.5818 0.698029 524.186 80.3817 -200.843
lowerback 0.659819 0.319791 -1.14294
upperback 11.6459 1.52742 -3.58632
thorax 12.244 1.14057 -3.04988
lowerneck 3.45194 -3.0895 1.95496
upperneck 12.2759 -4.20227 5.22792
head 3.45198 -1.65188 1.30476
rclavicle 7.55382e-015 -2.38542e-014
rhumerus -25.6012 -17.2933 -78.782
rradius 30.5287
rwrist 7.03694
rhand -8.7444 16.1521
rfingers 7.12502
rthumb 17.1925 -13.1073
lclavicle 7.55382e-015 -2.38542e-014
lhumerus -8.1528 3.8041 65.7815
lradius 49.9692
lwrist -12.8733
lhand -32.7665 -16.5416
lfingers 7.12502
lthumb -5.98876 13.3538
rfemur -36.3579 -11.0605 11.7627
rtibia 43.3857
rfoot -7.80196 6.87834
rtoes -13.8147
lfemur 7.33768 -4.4908 -11.7822
ltibia 21.5389
lfoot -11.9681 -15.7042
ltoes -16.9353
263
root 3.67067 18.5961 0.744243 523.496 80.3527 -201.599
lowerback 0.68751 0.261137 -0.930934
upperback 11.6235 1.41644 -3.49676
thorax 12.1945 1.09893 -3.08195
lowerneck 3.42142 -3.00759 1.89115
upperneck 12.3087 -4.07907 5.01341
head 3.46095 -1.60102 1.24682
rclavicle 1.76918e-014 -1.78906e-014
rhumerus -25.5072 -17.3167 -78.6436
rradius 30.4854
rwrist 6.98701
rhand -8.74284 16.2036
rfingers 7.12502
rthumb 17.194 -13.0557
lclavicle 1.76918e-014 -1.78906e-014
lhumerus -8.35866 3.78613 65.8866
lradius 49.8226
lwrist -13.2121
lhand -32.712 -16.5521
lfingers 7.12502
lthumb -5.93617 13.3447
rfemur -36.1772 -11.0341 11.7881
rtibia 43.4763
rfoot -8.18741 7.00778
rtoes -14.0791
lfemur 7.24892 -4.47926 -11.685
ltibia 21.8648
lfoot -10.9804 -15.9127
ltoes -16.7069
264
root 3.75874 18.6125 0.789495 522.707 80.3034 -202.448
lowerback 0.709603 0.203586 -0.725808
upperback 11.5871 1.30942 -3.43239
thorax 12.1329 1.05982 -3.13706
lowerneck 3.39765 -2.92741 1.82527
upperneck 12.3707 -3.96068 4.84154
head 3.48071 -1.54965 1.20363
rclavicle 2.32578e-014 -3.93594e-014
rhumerus -25.43 -17.4481 -78.5172
rradius 30.4323
rwrist 7.01309
rhand -8.70892 16.2703
rfingers 7.12502
rthumb 17.2266 -12.9862
lclavicle 2.32578e-014 -3.93594e-014
lhumerus -8.56101 3.7212 65.9492
lradius 49.6657
lwrist -13.5244
lhand -32.6141 -16.6546
lfingers 7.12502
lthumb -5.84166 13.2449
rfemur -35.9585 -11.0346 11.7828
rtibia 43.521
rfoot -8.57823 7.14525
rtoes -14.291
lfemur 7.10323 -4.49137 -11.6183
ltibia 22.2894
lfoot -10.0856 -16.0889
ltoes -16.7471
265
root 3.84768 18.6314 0.832168 522.089 80.2979 -203.12
lowerback 0.710684 0.1533 -0.469085
upperback 11.5411 1.20657 -3.35716
thorax 12.0736 1.02618 -3.20874
lowerneck 3.424 -2.83742 1.76036
upperneck 12.3868 -3.82479 4.66107
head 3.47466 -1.49219 1.15814
rclavicle 1.64991e-014 -6.36111e-015
rhumerus -25.3635 -17.5022 -78.3805
rradius 30.3986
rwrist 6.96422
rhand -8.68187 16.2474
rfingers 7.12502
rthumb 17.2527 -13.0068
lclavicle 1.64991e-014 -6.36111e-015
lhumerus -8.78828 3.7164 66.0457
lradius 49.487
lwrist -13.925
lhand -32.543 -16.6669
lfingers 7.12502
lthumb -5.77297 13.2345
rfemur -35.7134 -11.0037 11.8148
rtibia 43.5193
rfoot -8.92433 7.27688
rtoes -14.5942
lfemur 6.90444 -4.49682 -11.531
ltibia 22.8295
lfoot -9.29672 -16.1796
ltoes -17.1458
266
root 3.93541 18.6509 0.874261 521.192 80.2979 -204.065
lowerback 0.708971 0.115011 -0.255021
upperback 11.4957 1.12549 -3.29873
thorax 12.0178 1.00019 -3.2727
lowerneck 3.38875 -2.75254 1.69402
upperneck 12.475 -3.69988 4.48498
head 3.50599 -1.43676 1.11388
rclavicle -3.04141e-014 3.53837e-014
rhumerus -25.2741 -17.6222 -78.2343
rradius 30.3393
rwrist 6.97195
rhand -8.70741 16.2014
rfingers 7.12502
rthumb 17.2281 -13.0549
lclavicle -3.04141e-014 3.53837e-014
lhumerus -8.99677 3.6829 66.1173
lradius 49.2954
lwrist -14.2457
lhand -32.4754 -16.7274
lfingers 7.12502
lthumb -5.70769 13.1758
rfemur -35.4407 -10.9648 11.801
rtibia 43.475
rfoot -9.21687 7.41335
rtoes -14.7146
lfemur 6.65885 -4.52222 -11.5096
ltibia 23.4856
lfoot -8.58654 -16.2014
ltoes -17.6844
